<mxfile host="app.diagrams.net" agent="Mozilla/5.0 (X11; Linux x86_64) AppleWebKit/537.36 (KHTML, like Gecko) Chrome/130.0.0.0 Safari/537.36" version="25.0.1">
  <diagram name="Page-1" id="Y5i8nAKElCM3DZKmo0jd">
    <mxGraphModel dx="2550" dy="896" grid="1" gridSize="10" guides="1" tooltips="1" connect="1" arrows="1" fold="1" page="1" pageScale="1" pageWidth="850" pageHeight="1100" math="0" shadow="0">
      <root>
        <mxCell id="0" />
        <mxCell id="1" parent="0" />
        <mxCell id="QTqXg44s2NzDOGwUvxWn-83" value="Enable" style="edgeStyle=orthogonalEdgeStyle;rounded=0;orthogonalLoop=1;jettySize=auto;html=1;strokeColor=#66B2FF;" edge="1" parent="1" target="3pqAeDulmfkYLDfXA0w4-1">
          <mxGeometry relative="1" as="geometry">
            <mxPoint x="345" y="770" as="sourcePoint" />
          </mxGeometry>
        </mxCell>
        <mxCell id="3pqAeDulmfkYLDfXA0w4-1" value="" style="rounded=0;whiteSpace=wrap;html=1;" parent="1" vertex="1">
          <mxGeometry x="90" y="180" width="510" height="490" as="geometry" />
        </mxCell>
        <mxCell id="QTqXg44s2NzDOGwUvxWn-21" value="Data out 1 Sel (4 bit)" style="edgeStyle=orthogonalEdgeStyle;rounded=0;orthogonalLoop=1;jettySize=auto;html=1;strokeColor=#66B2FF;" edge="1" parent="1">
          <mxGeometry relative="1" as="geometry">
            <mxPoint x="560" y="610" as="targetPoint" />
            <mxPoint x="720" y="610" as="sourcePoint" />
          </mxGeometry>
        </mxCell>
        <mxCell id="QTqXg44s2NzDOGwUvxWn-22" value="Data out 2 Sel (4 bit)" style="edgeStyle=orthogonalEdgeStyle;rounded=0;orthogonalLoop=1;jettySize=auto;html=1;strokeColor=#66B2FF;" edge="1" parent="1">
          <mxGeometry relative="1" as="geometry">
            <mxPoint x="560" y="630" as="targetPoint" />
            <mxPoint x="720" y="630" as="sourcePoint" />
          </mxGeometry>
        </mxCell>
        <mxCell id="QTqXg44s2NzDOGwUvxWn-23" value="Data in 2 (32 Bit)" style="edgeStyle=orthogonalEdgeStyle;rounded=0;orthogonalLoop=1;jettySize=auto;html=1;strokeColor=#DA1FFF;entryX=0.25;entryY=1;entryDx=0;entryDy=0;" edge="1" parent="1">
          <mxGeometry relative="1" as="geometry">
            <mxPoint x="240" y="640" as="targetPoint" />
            <mxPoint x="240.5" y="770" as="sourcePoint" />
          </mxGeometry>
        </mxCell>
        <mxCell id="QTqXg44s2NzDOGwUvxWn-25" value="Data in 1 (32 Bit)" style="edgeStyle=orthogonalEdgeStyle;rounded=0;orthogonalLoop=1;jettySize=auto;html=1;strokeColor=#DA1FFF;entryX=0.25;entryY=1;entryDx=0;entryDy=0;" edge="1" parent="1">
          <mxGeometry relative="1" as="geometry">
            <mxPoint x="140" y="640" as="targetPoint" />
            <mxPoint x="140.5" y="770" as="sourcePoint" />
          </mxGeometry>
        </mxCell>
        <mxCell id="QTqXg44s2NzDOGwUvxWn-26" value="Data out 2 (32 Bit)" style="edgeStyle=orthogonalEdgeStyle;rounded=0;orthogonalLoop=1;jettySize=auto;html=1;strokeColor=#DA1FFF;entryX=0.25;entryY=1;entryDx=0;entryDy=0;" edge="1" parent="1">
          <mxGeometry relative="1" as="geometry">
            <mxPoint x="550.5" y="770" as="targetPoint" />
            <mxPoint x="550" y="640" as="sourcePoint" />
          </mxGeometry>
        </mxCell>
        <mxCell id="QTqXg44s2NzDOGwUvxWn-27" value="Data out 1 (32 Bit)" style="edgeStyle=orthogonalEdgeStyle;rounded=0;orthogonalLoop=1;jettySize=auto;html=1;strokeColor=#DA1FFF;entryX=0.25;entryY=1;entryDx=0;entryDy=0;" edge="1" parent="1">
          <mxGeometry relative="1" as="geometry">
            <mxPoint x="450.5" y="770" as="targetPoint" />
            <mxPoint x="450" y="640" as="sourcePoint" />
          </mxGeometry>
        </mxCell>
        <mxCell id="QTqXg44s2NzDOGwUvxWn-28" value="Multiplexer" style="rounded=0;whiteSpace=wrap;html=1;" vertex="1" parent="1">
          <mxGeometry x="130" y="600" width="120" height="40" as="geometry" />
        </mxCell>
        <mxCell id="QTqXg44s2NzDOGwUvxWn-29" value="Data in Sel (1 Bit)" style="edgeStyle=orthogonalEdgeStyle;rounded=0;orthogonalLoop=1;jettySize=auto;html=1;strokeColor=#66B2FF;" edge="1" parent="1">
          <mxGeometry relative="1" as="geometry">
            <mxPoint x="130" y="619.76" as="targetPoint" />
            <mxPoint x="-30" y="619.76" as="sourcePoint" />
          </mxGeometry>
        </mxCell>
        <mxCell id="QTqXg44s2NzDOGwUvxWn-31" value="Data in (32 Bit)" style="edgeStyle=orthogonalEdgeStyle;rounded=0;orthogonalLoop=1;jettySize=auto;html=1;strokeColor=#DA1FFF;" edge="1" parent="1">
          <mxGeometry relative="1" as="geometry">
            <mxPoint x="190" y="540" as="targetPoint" />
            <mxPoint x="190" y="600" as="sourcePoint" />
          </mxGeometry>
        </mxCell>
        <mxCell id="QTqXg44s2NzDOGwUvxWn-32" value="Multiplexer" style="rounded=0;whiteSpace=wrap;html=1;" vertex="1" parent="1">
          <mxGeometry x="440" y="600" width="120" height="40" as="geometry" />
        </mxCell>
        <mxCell id="QTqXg44s2NzDOGwUvxWn-33" value="GPRs out (16x32 Bit)" style="edgeStyle=orthogonalEdgeStyle;rounded=0;orthogonalLoop=1;jettySize=auto;html=1;strokeColor=#DA1FFF;" edge="1" parent="1">
          <mxGeometry relative="1" as="geometry">
            <mxPoint x="499.83" y="600" as="targetPoint" />
            <mxPoint x="499.83" y="540" as="sourcePoint" />
          </mxGeometry>
        </mxCell>
        <mxCell id="QTqXg44s2NzDOGwUvxWn-37" value="" style="rounded=0;whiteSpace=wrap;html=1;" vertex="1" parent="1">
          <mxGeometry x="110" y="200" width="470" height="340" as="geometry" />
        </mxCell>
        <mxCell id="QTqXg44s2NzDOGwUvxWn-38" value="Reset" style="edgeStyle=orthogonalEdgeStyle;rounded=0;orthogonalLoop=1;jettySize=auto;html=1;strokeColor=#66B2FF;" edge="1" parent="1">
          <mxGeometry relative="1" as="geometry">
            <mxPoint x="110" y="500" as="targetPoint" />
            <mxPoint x="-30" y="500" as="sourcePoint" />
          </mxGeometry>
        </mxCell>
        <mxCell id="QTqXg44s2NzDOGwUvxWn-39" value="CLK" style="edgeStyle=orthogonalEdgeStyle;rounded=0;orthogonalLoop=1;jettySize=auto;html=1;strokeColor=#66B2FF;" edge="1" parent="1">
          <mxGeometry relative="1" as="geometry">
            <mxPoint x="110" y="470" as="targetPoint" />
            <mxPoint x="-30" y="470" as="sourcePoint" />
          </mxGeometry>
        </mxCell>
        <mxCell id="QTqXg44s2NzDOGwUvxWn-42" value="Load GPRs (16 bit)" style="edgeStyle=orthogonalEdgeStyle;rounded=0;orthogonalLoop=1;jettySize=auto;html=1;strokeColor=#66B2FF;" edge="1" parent="1">
          <mxGeometry relative="1" as="geometry">
            <mxPoint x="110" y="440" as="targetPoint" />
            <mxPoint x="-30" y="440" as="sourcePoint" />
          </mxGeometry>
        </mxCell>
        <mxCell id="QTqXg44s2NzDOGwUvxWn-43" value="R0" style="rounded=0;whiteSpace=wrap;html=1;" vertex="1" parent="1">
          <mxGeometry x="136.25" y="220" width="87.5" height="60" as="geometry" />
        </mxCell>
        <mxCell id="QTqXg44s2NzDOGwUvxWn-58" value="R1" style="rounded=0;whiteSpace=wrap;html=1;" vertex="1" parent="1">
          <mxGeometry x="243.75" y="220" width="87.5" height="60" as="geometry" />
        </mxCell>
        <mxCell id="QTqXg44s2NzDOGwUvxWn-59" value="R2" style="rounded=0;whiteSpace=wrap;html=1;" vertex="1" parent="1">
          <mxGeometry x="353.75" y="220" width="87.5" height="60" as="geometry" />
        </mxCell>
        <mxCell id="QTqXg44s2NzDOGwUvxWn-60" value="R3" style="rounded=0;whiteSpace=wrap;html=1;" vertex="1" parent="1">
          <mxGeometry x="466.25" y="220" width="87.5" height="60" as="geometry" />
        </mxCell>
        <mxCell id="QTqXg44s2NzDOGwUvxWn-61" value="R4" style="rounded=0;whiteSpace=wrap;html=1;" vertex="1" parent="1">
          <mxGeometry x="136.25" y="300" width="87.5" height="60" as="geometry" />
        </mxCell>
        <mxCell id="QTqXg44s2NzDOGwUvxWn-62" value="R5" style="rounded=0;whiteSpace=wrap;html=1;" vertex="1" parent="1">
          <mxGeometry x="243.75" y="300" width="87.5" height="60" as="geometry" />
        </mxCell>
        <mxCell id="QTqXg44s2NzDOGwUvxWn-63" value="R6" style="rounded=0;whiteSpace=wrap;html=1;" vertex="1" parent="1">
          <mxGeometry x="353.75" y="300" width="87.5" height="60" as="geometry" />
        </mxCell>
        <mxCell id="QTqXg44s2NzDOGwUvxWn-64" value="R7" style="rounded=0;whiteSpace=wrap;html=1;" vertex="1" parent="1">
          <mxGeometry x="466.25" y="300" width="87.5" height="60" as="geometry" />
        </mxCell>
        <mxCell id="QTqXg44s2NzDOGwUvxWn-65" value="R8" style="rounded=0;whiteSpace=wrap;html=1;" vertex="1" parent="1">
          <mxGeometry x="136.25" y="380" width="87.5" height="60" as="geometry" />
        </mxCell>
        <mxCell id="QTqXg44s2NzDOGwUvxWn-66" value="R9" style="rounded=0;whiteSpace=wrap;html=1;" vertex="1" parent="1">
          <mxGeometry x="243.75" y="380" width="87.5" height="60" as="geometry" />
        </mxCell>
        <mxCell id="QTqXg44s2NzDOGwUvxWn-67" value="R10" style="rounded=0;whiteSpace=wrap;html=1;" vertex="1" parent="1">
          <mxGeometry x="353.75" y="380" width="87.5" height="60" as="geometry" />
        </mxCell>
        <mxCell id="QTqXg44s2NzDOGwUvxWn-68" value="R11" style="rounded=0;whiteSpace=wrap;html=1;" vertex="1" parent="1">
          <mxGeometry x="466.25" y="380" width="87.5" height="60" as="geometry" />
        </mxCell>
        <mxCell id="QTqXg44s2NzDOGwUvxWn-69" value="R12" style="rounded=0;whiteSpace=wrap;html=1;" vertex="1" parent="1">
          <mxGeometry x="136.25" y="460" width="87.5" height="60" as="geometry" />
        </mxCell>
        <mxCell id="QTqXg44s2NzDOGwUvxWn-70" value="R13" style="rounded=0;whiteSpace=wrap;html=1;" vertex="1" parent="1">
          <mxGeometry x="243.75" y="460" width="87.5" height="60" as="geometry" />
        </mxCell>
        <mxCell id="QTqXg44s2NzDOGwUvxWn-71" value="SP" style="rounded=0;whiteSpace=wrap;html=1;" vertex="1" parent="1">
          <mxGeometry x="353.75" y="460" width="87.5" height="60" as="geometry" />
        </mxCell>
        <mxCell id="QTqXg44s2NzDOGwUvxWn-72" value="PC" style="rounded=0;whiteSpace=wrap;html=1;" vertex="1" parent="1">
          <mxGeometry x="466.25" y="460" width="87.5" height="60" as="geometry" />
        </mxCell>
        <mxCell id="QTqXg44s2NzDOGwUvxWn-73" value="" style="ellipse;whiteSpace=wrap;html=1;aspect=fixed;fillColor=none;strokeWidth=2;strokeColor=#00CC00;" vertex="1" parent="1">
          <mxGeometry x="455" y="275" width="110" height="110" as="geometry" />
        </mxCell>
        <mxCell id="QTqXg44s2NzDOGwUvxWn-74" value="" style="endArrow=none;html=1;rounded=0;strokeWidth=11;strokeColor=#00CC00;entryX=0.998;entryY=0.398;entryDx=0;entryDy=0;entryPerimeter=0;" edge="1" parent="1" target="QTqXg44s2NzDOGwUvxWn-73">
          <mxGeometry width="50" height="50" relative="1" as="geometry">
            <mxPoint x="740" y="280" as="sourcePoint" />
            <mxPoint x="690" y="360" as="targetPoint" />
          </mxGeometry>
        </mxCell>
        <mxCell id="QTqXg44s2NzDOGwUvxWn-77" value="Rn" style="rounded=0;whiteSpace=wrap;html=1;" vertex="1" parent="1">
          <mxGeometry x="760" y="180" width="160" height="100" as="geometry" />
        </mxCell>
        <mxCell id="QTqXg44s2NzDOGwUvxWn-78" value="Reset" style="edgeStyle=orthogonalEdgeStyle;rounded=0;orthogonalLoop=1;jettySize=auto;html=1;strokeColor=#66B2FF;" edge="1" parent="1">
          <mxGeometry relative="1" as="geometry">
            <mxPoint x="760" y="260" as="targetPoint" />
            <mxPoint x="620" y="260" as="sourcePoint" />
          </mxGeometry>
        </mxCell>
        <mxCell id="QTqXg44s2NzDOGwUvxWn-79" value="CLK" style="edgeStyle=orthogonalEdgeStyle;rounded=0;orthogonalLoop=1;jettySize=auto;html=1;strokeColor=#66B2FF;" edge="1" parent="1">
          <mxGeometry relative="1" as="geometry">
            <mxPoint x="760" y="229.86" as="targetPoint" />
            <mxPoint x="620" y="229.86" as="sourcePoint" />
          </mxGeometry>
        </mxCell>
        <mxCell id="QTqXg44s2NzDOGwUvxWn-80" value="Load GPR (1 bit)" style="edgeStyle=orthogonalEdgeStyle;rounded=0;orthogonalLoop=1;jettySize=auto;html=1;strokeColor=#66B2FF;" edge="1" parent="1">
          <mxGeometry relative="1" as="geometry">
            <mxPoint x="760" y="200" as="targetPoint" />
            <mxPoint x="620" y="200" as="sourcePoint" />
          </mxGeometry>
        </mxCell>
        <mxCell id="QTqXg44s2NzDOGwUvxWn-81" value="Data in (32 Bit)" style="edgeStyle=orthogonalEdgeStyle;rounded=0;orthogonalLoop=1;jettySize=auto;html=1;strokeColor=#DA1FFF;" edge="1" parent="1">
          <mxGeometry relative="1" as="geometry">
            <mxPoint x="790" y="280" as="targetPoint" />
            <mxPoint x="790" y="340" as="sourcePoint" />
          </mxGeometry>
        </mxCell>
        <mxCell id="QTqXg44s2NzDOGwUvxWn-82" value="Data out (32 Bit)" style="edgeStyle=orthogonalEdgeStyle;rounded=0;orthogonalLoop=1;jettySize=auto;html=1;strokeColor=#DA1FFF;" edge="1" parent="1">
          <mxGeometry relative="1" as="geometry">
            <mxPoint x="890" y="340" as="targetPoint" />
            <mxPoint x="890" y="280" as="sourcePoint" />
          </mxGeometry>
        </mxCell>
      </root>
    </mxGraphModel>
  </diagram>
</mxfile>
